<svg width='160' height="26" viewBox="0 0 200 32" xmlns="http://www.w3.org/2000/svg">
  <g fill='white'>
    <path d="M10.9068 31.0934C9.51965 31.1155 8.14233 30.8576 6.85713 30.3353C5.57192 29.813 4.4052 29.0369 3.42675 28.0534C0.626748 25.2534 0.666779 22.0934 0.666779 16.6134C0.666779 11.1334 0.626748 7.94673 3.42675 5.1734C4.4052 4.18993 5.57192 3.41386 6.85713 2.89154C8.14233 2.36921 9.51965 2.11134 10.9068 2.1334C12.3941 2.09294 13.873 2.36921 15.2453 2.9439C16.6177 3.51859 17.8521 4.37856 18.8668 5.46673L15.9868 8.41343C14.5068 6.93343 13.2668 6.0134 10.9068 6.0134C10.1262 5.99679 9.35049 6.14093 8.62796 6.43682C7.90543 6.73272 7.2515 7.17405 6.70678 7.73341C5.30678 9.25341 5.02676 10.8934 5.02676 16.6134C5.02676 22.3334 5.30678 23.9468 6.70678 25.4934C7.2515 26.0528 7.90543 26.4941 8.62796 26.79C9.35049 27.0859 10.1262 27.23 10.9068 27.2134C13.2668 27.2134 14.5068 26.2934 15.9868 24.8134L18.8668 27.7334C17.8545 28.8264 16.6211 29.6913 15.2486 30.2707C13.8762 30.85 12.3961 31.1305 10.9068 31.0934V31.0934Z" />
    <path d="M36.4668 30.8534V18.4134C36.4668 15.3334 34.6668 13.9734 32.3868 13.9734C30.1068 13.9734 28.2668 15.3734 28.2668 18.4134V30.8534H24.1868V2.37341H28.2668V12.6134C28.9296 11.8848 29.7393 11.305 30.6425 10.912C31.5457 10.519 32.5219 10.3218 33.5068 10.3334C38.0268 10.3334 40.5468 13.3734 40.5468 17.7734V30.8534H36.4668Z" />
    <path d="M60.3867 28.6934C59.5917 29.4886 58.6418 30.112 57.5959 30.5249C56.5501 30.9377 55.4305 31.1312 54.3067 31.0934C53.1889 31.1313 52.0753 30.9376 51.0359 30.5246C49.9965 30.1116 49.0537 29.4882 48.2667 28.6934C46.3467 26.6934 45.8667 24.1334 45.8667 20.6934C45.8667 17.2534 46.3467 14.7334 48.2667 12.7334C49.0537 11.9387 49.9965 11.3152 51.0359 10.9022C52.0753 10.4892 53.1889 10.2955 54.3067 10.3334C55.4305 10.2956 56.5501 10.4891 57.5959 10.902C58.6418 11.3148 59.5917 11.9382 60.3867 12.7334C62.3067 14.7334 62.7867 17.2934 62.7867 20.6934C62.7867 24.0934 62.3067 26.6934 60.3867 28.6934ZM57.32 15.1334C56.9229 14.7494 56.4528 14.4489 55.9375 14.2496C55.4222 14.0504 54.8722 13.9565 54.32 13.9734C53.7738 13.9565 53.2299 14.0506 52.7211 14.25C52.2123 14.4494 51.7493 14.7499 51.36 15.1334C50.12 16.3734 49.96 18.4668 49.96 20.6934C49.96 22.9201 50.12 25.0134 51.36 26.2534C51.7471 26.6425 52.2088 26.9494 52.7175 27.1556C53.2261 27.3618 53.7712 27.4631 54.32 27.4534C54.8748 27.4632 55.4259 27.3621 55.9411 27.1561C56.4562 26.95 56.9251 26.6431 57.32 26.2534C58.56 25.0134 58.72 22.9201 58.72 20.6934C58.72 18.4668 58.5467 16.3734 57.32 15.1334Z" />
    <path d="M70.3466 6.61338C69.8192 6.61338 69.3036 6.45697 68.8651 6.16396C68.4266 5.87094 68.0847 5.45445 67.8829 4.96718C67.6811 4.47991 67.6283 3.94373 67.7312 3.42645C67.8341 2.90917 68.088 2.43403 68.461 2.06109C68.8339 1.68815 69.3091 1.43417 69.8264 1.33127C70.3436 1.22838 70.8798 1.28117 71.3671 1.48301C71.8544 1.68484 72.2708 2.02665 72.5639 2.46518C72.8569 2.90372 73.0132 3.41929 73.0132 3.94671C73.0132 4.65396 72.7323 5.33223 72.2322 5.83233C71.7321 6.33243 71.0538 6.61338 70.3466 6.61338ZM68.3066 30.8534V10.5734H72.3866V30.8534H68.3066Z" />
    <path d="M86.8667 31.0934C82.3067 31.0934 77.8267 28.2934 77.8267 20.6934C77.8267 13.0934 82.3067 10.3334 86.8667 10.3334C88.1201 10.2733 89.3709 10.4976 90.5254 10.9895C91.6799 11.4813 92.7082 12.2279 93.5333 13.1734L90.7333 15.8934C89.4533 14.4934 88.4533 13.9734 86.8533 13.9734C86.1288 13.954 85.41 14.1071 84.7563 14.4201C84.1026 14.733 83.5326 15.1969 83.0933 15.7734C82.2133 16.8934 81.8933 18.3334 81.8933 20.6934C81.8933 23.0534 82.2133 24.5334 83.0933 25.6534C83.5326 26.2299 84.1026 26.6938 84.7563 27.0067C85.41 27.3197 86.1288 27.4728 86.8533 27.4534C88.4533 27.4534 89.4533 26.9334 90.7333 25.5334L93.5333 28.2001C92.7118 29.1534 91.6855 29.9087 90.5311 30.4097C89.3767 30.9107 88.1241 31.1444 86.8667 31.0934V31.0934Z" />
    <path d="M100.587 21.8934C100.587 25.3734 102.427 27.5734 105.747 27.5734C106.667 27.6268 107.587 27.4696 108.437 27.1138C109.288 26.758 110.046 26.2129 110.653 25.52L113.253 27.96C112.304 29.0218 111.128 29.8569 109.813 30.4038C108.497 30.9507 107.076 31.1955 105.653 31.1201C100.573 31.1201 96.5334 28.4534 96.5334 20.72C96.5334 14.16 99.9334 10.36 105.133 10.36C110.573 10.36 113.733 14.3601 113.733 20.1201V21.92L100.587 21.8934ZM109.147 16.2934C108.819 15.5112 108.26 14.8474 107.546 14.3902C106.831 13.9329 105.995 13.7038 105.147 13.7334C104.294 13.7031 103.452 13.9313 102.731 14.3882C102.01 14.845 101.444 15.5091 101.107 16.2934C100.732 17.1636 100.554 18.1062 100.587 19.0534H109.707C109.727 18.1032 109.536 17.1604 109.147 16.2934Z" />
    <path d="M123.867 14.0533V30.8534H119.787V14.0533H117.467V10.9333H119.787V7.81335C119.787 4.89335 121.547 2.17334 125.347 2.17334H127.907V5.65336H126.107C124.587 5.65336 123.867 6.53335 123.867 8.01335V10.9333H127.907V14.0533H123.867Z" />
    <path d="M145.14 28.6934C144.345 29.4886 143.395 30.112 142.349 30.5249C141.303 30.9377 140.184 31.1312 139.06 31.0934C137.942 31.1309 136.829 30.937 135.789 30.5241C134.75 30.1111 133.807 29.4878 133.02 28.6934C131.1 26.6934 130.627 24.1334 130.627 20.6934C130.627 17.2534 131.1 14.7334 133.02 12.7334C133.807 11.939 134.75 11.3157 135.789 10.9027C136.829 10.4897 137.942 10.2959 139.06 10.3334C140.184 10.2956 141.303 10.4891 142.349 10.9019C143.395 11.3148 144.345 11.9382 145.14 12.7334C147.06 14.7334 147.54 17.2934 147.54 20.6934C147.54 24.0934 147.06 26.6934 145.14 28.6934ZM142.06 15.1334C141.663 14.7494 141.193 14.4488 140.677 14.2496C140.162 14.0504 139.612 13.9564 139.06 13.9734C138.514 13.9565 137.97 14.0506 137.461 14.25C136.952 14.4494 136.489 14.7499 136.1 15.1334C134.86 16.3734 134.707 18.4667 134.707 20.6934C134.707 22.9201 134.86 25.0134 136.1 26.2534C136.487 26.6425 136.949 26.9494 137.458 27.1556C137.966 27.3618 138.511 27.4631 139.06 27.4534C139.615 27.4632 140.166 27.3621 140.681 27.1561C141.196 26.95 141.665 26.6431 142.06 26.2534C143.3 25.0134 143.46 22.9201 143.46 20.6934C143.46 18.4667 143.32 16.3734 142.06 15.1334Z" />
    <path d="M164.22 15.3334C163.849 14.8933 163.382 14.5442 162.855 14.3131C162.328 14.0819 161.755 13.9748 161.18 14.0001C158.98 14.0001 157.14 15.7601 157.14 18.5601V30.8534H153.06V10.5734H157.06V12.7734C157.714 11.9818 158.541 11.3504 159.477 10.9275C160.413 10.5045 161.433 10.3013 162.46 10.3334C163.36 10.2853 164.261 10.4319 165.099 10.7633C165.938 11.0946 166.695 11.6029 167.32 12.2534L164.22 15.3334Z" />
    <path d="M195.32 30.8533V18.4934C195.32 15.3334 193.52 13.9733 191.24 13.9733C188.96 13.9733 187.04 15.3733 187.04 18.2933V30.8533H182.96V18.4934C182.96 15.3334 181.16 13.9733 178.88 13.9733C176.6 13.9733 174.68 15.3734 174.68 18.4934V30.8533H170.653V10.5734H174.653V12.6133C175.348 11.8824 176.186 11.3026 177.116 10.9103C178.045 10.518 179.045 10.3216 180.053 10.3333C181.189 10.2782 182.319 10.5226 183.33 11.0422C184.341 11.5617 185.197 12.3381 185.813 13.2933C186.564 12.3319 187.531 11.5623 188.637 11.0478C189.743 10.5332 190.955 10.2883 192.173 10.3333C194.053 10.2675 195.886 10.9262 197.293 12.1733C198.033 12.9228 198.608 13.8191 198.98 14.8043C199.352 15.7896 199.513 16.8419 199.453 17.8933V30.8533H195.32Z" />
  </g>
</svg>